<?xml version="1.0" encoding="UTF-8"?>
<svg width="400" height="300" viewBox="0 0 400 300" fill="none" xmlns="http://www.w3.org/2000/svg">
  <!-- Background -->
  <rect width="400" height="300" fill="#f8f8f8" />
  
  <!-- Mosque Silhouette -->
  <path d="M0 180H400V200H0V180Z" fill="#e0e0e0" />
  <path d="M150 180C150 180 150 100 200 80C250 100 250 180 250 180H150Z" fill="#005e7a" opacity="0.2" />
  <path d="M170 180V120H180V180H170Z" fill="#005e7a" opacity="0.3" />
  <path d="M220 180V120H230V180H220Z" fill="#005e7a" opacity="0.3" />
  <path d="M195 80L200 60L205 80H195Z" fill="#005e7a" opacity="0.3" />
  <circle cx="200" cy="90" r="10" fill="#005e7a" opacity="0.3" />
  
  <!-- Person Reading Quran -->
  <ellipse cx="200" cy="220" rx="40" ry="10" fill="#e0e0e0" />
  
  <!-- Body -->
  <path d="M180 220V170C180 170 190 160 200 160C210 160 220 170 220 170V220" fill="#005e7a" />
  
  <!-- Head -->
  <circle cx="200" cy="150" r="15" fill="#f0c75e" />
  
  <!-- Book -->
  <path d="M185 190H215V195H185V190Z" fill="#ffffff" />
  <path d="M185 190C185 190 185 180 200 180C215 180 215 190 215 190" fill="#ffffff" />
  <path d="M185 190V195C185 195 185 205 200 205C215 205 215 195 215 195V190" fill="#ffffff" />
  <path d="M200 180V205" stroke="#f0c75e" stroke-width="1" />
  <path d="M190 185L190 200" stroke="#005e7a" stroke-width="0.5" />
  <path d="M195 185L195 200" stroke="#005e7a" stroke-width="0.5" />
  <path d="M205 185L205 200" stroke="#005e7a" stroke-width="0.5" />
  <path d="M210 185L210 200" stroke="#005e7a" stroke-width="0.5" />
  
  <!-- Decorative Elements -->
  <circle cx="100" cy="100" r="20" fill="#f0c75e" opacity="0.2" />
  <circle cx="300" cy="100" r="20" fill="#f0c75e" opacity="0.2" />
  <circle cx="100" cy="250" r="15" fill="#005e7a" opacity="0.1" />
  <circle cx="300" cy="250" r="15" fill="#005e7a" opacity="0.1" />
  
  <!-- Arabic Calligraphy Style Decoration -->
  <path d="M50 50C50 50 70 30 90 50C110 70 130 50 130 50" stroke="#005e7a" stroke-width="2" opacity="0.3" />
  <path d="M270 50C270 50 290 30 310 50C330 70 350 50 350 50" stroke="#005e7a" stroke-width="2" opacity="0.3" />
</svg> 