<?xml version="1.0" encoding="UTF-8"?>
<svg width="200" height="200" viewBox="0 0 200 200" fill="none" xmlns="http://www.w3.org/2000/svg">
  <!-- Background Circle -->
  <circle cx="100" cy="100" r="95" fill="#005e7a" />
  <circle cx="100" cy="100" r="85" fill="#ffffff" />
  
  <!-- Open Book Symbol -->
  <path d="M100 60C100 60 70 50 50 60V140C70 130 100 140 100 140V60Z" fill="#005e7a" />
  <path d="M100 60C100 60 130 50 150 60V140C130 130 100 140 100 140V60Z" fill="#005e7a" />
  <path d="M100 70C100 70 75 62 60 70V130C75 122 100 130 100 130V70Z" fill="#ffffff" />
  <path d="M100 70C100 70 125 62 140 70V130C125 122 100 130 100 130V70Z" fill="#ffffff" />
  
  <!-- Arabic-inspired Decorative Element -->
  <path d="M100 40C100 40 90 45 100 50C110 45 100 40 100 40Z" fill="#f0c75e" />
  <path d="M80 45C80 45 70 50 80 55C90 50 80 45 80 45Z" fill="#f0c75e" />
  <path d="M120 45C120 45 110 50 120 55C130 50 120 45 120 45Z" fill="#f0c75e" />
  
  <!-- Text "ZBT" -->
  <path d="M70 160H130V170H70V160Z" fill="#005e7a" />
  <path d="M70 160L130 160L100 145L70 160Z" fill="#005e7a" />
  <path d="M85 170V180H115V170" stroke="#005e7a" stroke-width="10" stroke-linecap="round" />
</svg> 